<svg width="83" height="83" viewBox="0 0 83 83" fill="none" xmlns="http://www.w3.org/2000/svg">
<path d="M25.5996 2H57.4004C61.9136 2 65.1785 2.00115 67.7461 2.21094C70.2903 2.41882 71.9732 2.82208 73.3555 3.52637C75.9897 4.86859 78.1314 7.01026 79.4736 9.64453C80.1779 11.0268 80.5812 12.7097 80.7891 15.2539C80.9988 17.8215 81 21.0864 81 25.5996V57.4004C81 61.9136 80.9988 65.1785 80.7891 67.7461C80.5812 70.2903 80.1779 71.9732 79.4736 73.3555C78.1314 75.9897 75.9897 78.1314 73.3555 79.4736C71.9732 80.1779 70.2903 80.5812 67.7461 80.7891C65.1785 80.9988 61.9136 81 57.4004 81H25.5996C21.0864 81 17.8215 80.9988 15.2539 80.7891C12.7097 80.5812 11.0268 80.1779 9.64453 79.4736C7.01026 78.1314 4.86859 75.9897 3.52637 73.3555C2.82208 71.9732 2.41882 70.2903 2.21094 67.7461C2.00115 65.1785 2 61.9136 2 57.4004V25.5996C2 21.0864 2.00115 17.8215 2.21094 15.2539C2.41882 12.7097 2.82208 11.0268 3.52637 9.64453C4.86859 7.01026 7.01026 4.86859 9.64453 3.52637C11.0268 2.82208 12.7097 2.41882 15.2539 2.21094C17.1797 2.0536 19.4978 2.01418 22.4404 2.00391L25.5996 2Z" stroke="black" stroke-width="4"/>
<path d="M26.376 60C23.976 60 22.024 59.424 20.52 58.272C19.048 57.088 17.896 55.616 17.064 53.856C16.264 52.064 15.72 50.112 15.432 48C15.144 45.888 15 43.888 15 42C15 40.112 15.144 38.112 15.432 36C15.72 33.888 16.28 31.952 17.112 30.192C17.944 28.4 19.096 26.928 20.568 25.776C22.072 24.592 24.04 24 26.472 24C28.872 24 30.808 24.576 32.28 25.728C33.784 26.88 34.936 28.336 35.736 30.096C36.536 31.856 37.064 33.776 37.32 35.856C37.608 37.936 37.752 39.904 37.752 41.76C37.752 43.712 37.608 45.76 37.32 47.904C37.032 50.048 36.472 52.016 35.64 53.808C34.808 55.6 33.656 57.088 32.184 58.272C30.712 59.424 28.776 60 26.376 60ZM26.376 55.68C27.912 55.68 29.144 55.184 30.072 54.192C31 53.168 31.704 51.952 32.184 50.544C32.696 49.104 33.032 47.6 33.192 46.032C33.352 44.432 33.432 43.056 33.432 41.904C33.432 41.072 33.384 40.128 33.288 39.072L20.472 50.352C20.504 50.416 20.536 50.464 20.568 50.496C21.048 51.936 21.752 53.168 22.68 54.192C23.608 55.184 24.84 55.68 26.376 55.68ZM32.232 33.552C32.232 33.52 32.232 33.472 32.232 33.408C31.72 32 31 30.8 30.072 29.808C29.144 28.816 27.912 28.32 26.376 28.32C24.84 28.32 23.608 28.832 22.68 29.856C21.752 30.848 21.032 32.064 20.52 33.504C20.04 34.912 19.72 36.4 19.56 37.968C19.4 39.504 19.32 40.832 19.32 41.952C19.32 42.816 19.368 43.776 19.464 44.832L32.232 33.552Z" fill="black"/>
<path d="M60.6772 30.576C60.7413 30.416 60.7893 30.272 60.8213 30.144C60.8533 29.984 60.8693 29.84 60.8693 29.712C60.8693 29.392 60.7573 29.168 60.5333 29.04C60.3093 28.88 59.9572 28.8 59.4772 28.8H45.8932C45.1572 28.8 44.6132 28.624 44.2612 28.272C43.9092 27.92 43.7332 27.376 43.7332 26.64C43.7332 25.904 43.9092 25.36 44.2612 25.008C44.6132 24.656 45.1572 24.48 45.8932 24.48H62.5493C63.7013 24.48 64.5653 24.768 65.1413 25.344C65.7173 25.888 66.0053 26.688 66.0053 27.744C66.0053 28.128 65.9733 28.48 65.9093 28.8C65.8453 29.088 65.7653 29.36 65.6693 29.616L54.1973 58.56C54.0053 59.04 53.7173 59.392 53.3333 59.616C52.9493 59.872 52.4372 60 51.7972 60C51.1252 60 50.6132 59.872 50.2612 59.616C49.9092 59.392 49.7332 59.024 49.7332 58.512C49.7332 58.32 49.7653 58.096 49.8293 57.84C49.8933 57.584 49.9733 57.328 50.0693 57.072L60.6772 30.576Z" fill="black"/>
</svg>
