<svg width="91" height="91" viewBox="0 0 91 91" fill="none" xmlns="http://www.w3.org/2000/svg">
<path d="M29.5996 6H61.4004C65.9136 6 69.1785 6.00115 71.7461 6.21094C74.2903 6.41882 75.9732 6.82208 77.3555 7.52637C79.9897 8.86859 82.1314 11.0103 83.4736 13.6445C84.1779 15.0268 84.5812 16.7097 84.7891 19.2539C84.9988 21.8215 85 25.0864 85 29.5996V61.4004C85 65.9136 84.9988 69.1785 84.7891 71.7461C84.5812 74.2903 84.1779 75.9732 83.4736 77.3555C82.1314 79.9897 79.9897 82.1314 77.3555 83.4736C75.9732 84.1779 74.2903 84.5812 71.7461 84.7891C69.1785 84.9988 65.9136 85 61.4004 85H29.5996C25.0864 85 21.8215 84.9988 19.2539 84.7891C16.7097 84.5812 15.0268 84.1779 13.6445 83.4736C11.0103 82.1314 8.8686 79.9897 7.52637 77.3555C6.82208 75.9732 6.41882 74.2903 6.21094 71.7461C6.00116 69.1785 6 65.9136 6 61.4004V29.5996C6 25.0864 6.00116 21.8215 6.21094 19.2539C6.41882 16.7097 6.82208 15.0268 7.52637 13.6445C8.8686 11.0103 11.0103 8.86859 13.6445 7.52637C15.0268 6.82208 16.7097 6.41882 19.2539 6.21094C21.1797 6.0536 23.4978 6.01418 26.4404 6.00391L29.5996 6Z" fill="white" stroke="black" stroke-width="4"/>
<path d="M61.4004 2L64.5547 2.00293C67.5324 2.0131 69.9952 2.055 72.0713 2.22461C74.863 2.4527 77.1316 2.92237 79.1719 3.96191C82.5588 5.68763 85.3124 8.44125 87.0381 11.8281C88.0776 13.8684 88.5473 16.137 88.7754 18.9287C89.0015 21.6969 89 25.1526 89 29.5996V61.4004C89 65.8474 89.0015 69.3031 88.7754 72.0713C88.5473 74.863 88.0776 77.1316 87.0381 79.1719C85.3124 82.5588 82.5588 85.3124 79.1719 87.0381C77.1316 88.0776 74.863 88.5473 72.0713 88.7754C69.3031 89.0015 65.8474 89 61.4004 89H29.5996C25.1526 89 21.6969 89.0015 18.9287 88.7754C16.137 88.5473 13.8684 88.0776 11.8281 87.0381C8.44125 85.3124 5.68763 82.5588 3.96192 79.1719C2.92237 77.1316 2.45271 74.863 2.22461 72.0713C1.99846 69.3031 2 65.8474 2 61.4004V29.5996C2 25.1526 1.99846 21.6969 2.22461 18.9287C2.45271 16.137 2.92237 13.8684 3.96192 11.8281C5.68763 8.44125 8.44125 5.68763 11.8281 3.96191C13.8684 2.92236 16.137 2.4527 18.9287 2.22461C21.6969 1.99846 25.1526 2 29.5996 2H61.4004Z" stroke="white" stroke-width="4"/>
<path d="M30.376 64C27.976 64 26.024 63.424 24.52 62.272C23.048 61.088 21.896 59.616 21.064 57.856C20.264 56.064 19.72 54.112 19.432 52C19.144 49.888 19 47.888 19 46C19 44.112 19.144 42.112 19.432 40C19.72 37.888 20.28 35.952 21.112 34.192C21.944 32.4 23.096 30.928 24.568 29.776C26.072 28.592 28.04 28 30.472 28C32.872 28 34.808 28.576 36.28 29.728C37.784 30.88 38.936 32.336 39.736 34.096C40.536 35.856 41.064 37.776 41.32 39.856C41.608 41.936 41.752 43.904 41.752 45.76C41.752 47.712 41.608 49.76 41.32 51.904C41.032 54.048 40.472 56.016 39.64 57.808C38.808 59.6 37.656 61.088 36.184 62.272C34.712 63.424 32.776 64 30.376 64ZM30.376 59.68C31.912 59.68 33.144 59.184 34.072 58.192C35 57.168 35.704 55.952 36.184 54.544C36.696 53.104 37.032 51.6 37.192 50.032C37.352 48.432 37.432 47.056 37.432 45.904C37.432 45.072 37.384 44.128 37.288 43.072L24.472 54.352C24.504 54.416 24.536 54.464 24.568 54.496C25.048 55.936 25.752 57.168 26.68 58.192C27.608 59.184 28.84 59.68 30.376 59.68ZM36.232 37.552C36.232 37.52 36.232 37.472 36.232 37.408C35.72 36 35 34.8 34.072 33.808C33.144 32.816 31.912 32.32 30.376 32.32C28.84 32.32 27.608 32.832 26.68 33.856C25.752 34.848 25.032 36.064 24.52 37.504C24.04 38.912 23.72 40.4 23.56 41.968C23.4 43.504 23.32 44.832 23.32 45.952C23.32 46.816 23.368 47.776 23.464 48.832L36.232 37.552Z" fill="black"/>
<path d="M64.6773 34.576C64.7413 34.416 64.7893 34.272 64.8213 34.144C64.8533 33.984 64.8693 33.84 64.8693 33.712C64.8693 33.392 64.7573 33.168 64.5333 33.04C64.3093 32.88 63.9573 32.8 63.4773 32.8H49.8933C49.1573 32.8 48.6133 32.624 48.2613 32.272C47.9093 31.92 47.7333 31.376 47.7333 30.64C47.7333 29.904 47.9093 29.36 48.2613 29.008C48.6133 28.656 49.1573 28.48 49.8933 28.48H66.5493C67.7013 28.48 68.5653 28.768 69.1413 29.344C69.7173 29.888 70.0053 30.688 70.0053 31.744C70.0053 32.128 69.9733 32.48 69.9093 32.8C69.8453 33.088 69.7653 33.36 69.6693 33.616L58.1973 62.56C58.0053 63.04 57.7173 63.392 57.3333 63.616C56.9493 63.872 56.4373 64 55.7973 64C55.1253 64 54.6133 63.872 54.2613 63.616C53.9093 63.392 53.7333 63.024 53.7333 62.512C53.7333 62.32 53.7653 62.096 53.8293 61.84C53.8933 61.584 53.9733 61.328 54.0693 61.072L64.6773 34.576Z" fill="black"/>
</svg>
